<?xml version="1.0" encoding="UTF-8" standalone="no"?>
<svg width="151.694mm" height="90.6639mm"
 xmlns="http://www.w3.org/2000/svg" xmlns:xlink="http://www.w3.org/1999/xlink"  version="1.2" baseProfile="tiny">
<title>Qt SVG Document</title>
<desc>Generated with Qt</desc>
<defs>
</defs>
<g fill="none" stroke="black" stroke-width="1" fill-rule="evenodd" stroke-linecap="square" stroke-linejoin="bevel" >

<g fill="none" stroke="#000000" stroke-opacity="1" stroke-width="1" stroke-linecap="square" stroke-linejoin="bevel" transform="matrix(1,0,0,1,0,0)"
font-family="Ubuntu" font-size="11" font-weight="400" font-style="normal" 
>
</g>

<g fill="none" stroke="#000000" stroke-opacity="1" stroke-width="1" stroke-linecap="square" stroke-linejoin="bevel" transform="matrix(1,0,0,1,0,0)"
font-family="Ubuntu" font-size="11" font-weight="400" font-style="normal" 
>
</g>

<g fill="none" stroke="#000000" stroke-opacity="1" stroke-width="1" stroke-linecap="square" stroke-linejoin="bevel" transform="matrix(2,0,0,2,0,247.28)"
font-family="Ubuntu" font-size="11" font-weight="400" font-style="normal" 
>
</g>

<g fill="#ffffff" fill-opacity="1" stroke="none" transform="matrix(2,0,0,2,0,247.28)"
font-family="Ubuntu" font-size="11" font-weight="400" font-style="normal" 
>
<rect x="0" y="-123.64" width="215" height="128.377"/>
</g>

<g fill="none" stroke="#000000" stroke-opacity="1" stroke-width="1" stroke-linecap="square" stroke-linejoin="bevel" transform="matrix(2,0,0,2,0,247.28)"
font-family="Ubuntu" font-size="11" font-weight="400" font-style="normal" 
>
</g>

<g fill="none" stroke="#000000" stroke-opacity="1" stroke-width="1" stroke-linecap="square" stroke-linejoin="bevel" transform="matrix(2,0,0,2,0,247.28)"
font-family="Ubuntu" font-size="11" font-weight="400" font-style="normal" 
>
</g>

<g fill="none" stroke="#000000" stroke-opacity="1" stroke-width="1" stroke-linecap="square" stroke-linejoin="bevel" transform="matrix(2,0,0,2,0,247.28)"
font-family="Ubuntu" font-size="11" font-weight="400" font-style="normal" 
>
</g>

<g fill="none" stroke="#000000" stroke-opacity="1" stroke-width="1" stroke-linecap="square" stroke-linejoin="bevel" transform="matrix(2,0,0,2,0,247.28)"
font-family="Ubuntu" font-size="11" font-weight="400" font-style="normal" 
>
</g>

<g fill="none" stroke="#000000" stroke-opacity="1" stroke-width="1" stroke-linecap="square" stroke-linejoin="round" transform="matrix(2,0,0,2,0,247.28)"
font-family="Ubuntu" font-size="11" font-weight="400" font-style="normal" 
>
<ellipse cx="188" cy="-21.638" rx="26.5" ry="17.5"/>
</g>

<g fill="none" stroke="#000000" stroke-opacity="1" stroke-width="1" stroke-linecap="square" stroke-linejoin="bevel" transform="matrix(2,0,0,2,0,247.28)"
font-family="Ubuntu" font-size="11" font-weight="400" font-style="normal" 
>
</g>

<g fill="none" stroke="#000000" stroke-opacity="1" stroke-width="1" stroke-linecap="square" stroke-linejoin="bevel" transform="matrix(2,0,0,2,364.781,191.004)"
font-family="Ubuntu" font-size="11" font-weight="400" font-style="normal" 
>
</g>

<g fill="none" stroke="#000000" stroke-opacity="1" stroke-width="1" stroke-linecap="square" stroke-linejoin="bevel" transform="matrix(2,0,0,2,364.781,191.004)"
font-family="sans" font-size="11" font-weight="100" font-style="normal" 
>
</g>

<g fill="#000000" fill-opacity="1" stroke="#000000" stroke-opacity="1" stroke-width="1" stroke-linecap="square" stroke-linejoin="round" transform="matrix(2,0,0,2,364.781,191.004)"
font-family="sans" font-size="11" font-weight="100" font-style="normal" 
>
<path vector-effect="none" fill-rule="nonzero" d="M2.79688,1.98438 L3.70312,1.98438 L0.90625,11.0156 L0,11.0156 L2.79688,1.98438 M7.46875,3.04688 L5.98438,7.04688 L8.9375,7.04688 L7.46875,3.04688 M6.84375,1.98438 L8.07812,1.98438 L11.1406,10 L10.0156,10 L9.28125,7.9375 L5.65625,7.9375 L4.9375,10 L3.79688,10 L6.84375,1.98438"/>
</g>

<g fill="none" stroke="#000000" stroke-opacity="1" stroke-width="1" stroke-linecap="square" stroke-linejoin="bevel" transform="matrix(2,0,0,2,364.781,191.004)"
font-family="sans" font-size="11" font-weight="100" font-style="normal" 
>
</g>

<g fill="none" stroke="#000000" stroke-opacity="1" stroke-width="1" stroke-linecap="square" stroke-linejoin="bevel" transform="matrix(2,0,0,2,364.781,191.004)"
font-family="Ubuntu" font-size="11" font-weight="400" font-style="normal" 
>
</g>

<g fill="none" stroke="#000000" stroke-opacity="1" stroke-width="1" stroke-linecap="square" stroke-linejoin="bevel" transform="matrix(2,0,0,2,0,247.28)"
font-family="Ubuntu" font-size="11" font-weight="400" font-style="normal" 
>
</g>

<g fill="none" stroke="#000000" stroke-opacity="1" stroke-width="1" stroke-linecap="square" stroke-linejoin="bevel" transform="matrix(2,0,0,2,0,247.28)"
font-family="Ubuntu" font-size="11" font-weight="400" font-style="normal" 
>
</g>

<g fill="none" stroke="#000000" stroke-opacity="1" stroke-width="1" stroke-linecap="square" stroke-linejoin="bevel" transform="matrix(2,0,0,2,0,247.28)"
font-family="Ubuntu" font-size="11" font-weight="400" font-style="normal" 
>
</g>

<g fill="none" stroke="#000000" stroke-opacity="1" stroke-width="1" stroke-linecap="square" stroke-linejoin="round" transform="matrix(2,0,0,2,0,247.28)"
font-family="Ubuntu" font-size="11" font-weight="400" font-style="normal" 
>
<ellipse cx="188" cy="-105.64" rx="26.5" ry="17.5"/>
</g>

<g fill="none" stroke="#000000" stroke-opacity="1" stroke-width="1" stroke-linecap="square" stroke-linejoin="bevel" transform="matrix(2,0,0,2,0,247.28)"
font-family="Ubuntu" font-size="11" font-weight="400" font-style="normal" 
>
</g>

<g fill="none" stroke="#000000" stroke-opacity="1" stroke-width="1" stroke-linecap="square" stroke-linejoin="bevel" transform="matrix(2,0,0,2,364.766,23)"
font-family="Ubuntu" font-size="11" font-weight="400" font-style="normal" 
>
</g>

<g fill="none" stroke="#000000" stroke-opacity="1" stroke-width="1" stroke-linecap="square" stroke-linejoin="bevel" transform="matrix(2,0,0,2,364.766,23)"
font-family="sans" font-size="11" font-weight="100" font-style="normal" 
>
</g>

<g fill="#000000" fill-opacity="1" stroke="#000000" stroke-opacity="1" stroke-width="1" stroke-linecap="square" stroke-linejoin="round" transform="matrix(2,0,0,2,364.766,23)"
font-family="sans" font-size="11" font-weight="100" font-style="normal" 
>
<path vector-effect="none" fill-rule="nonzero" d="M2.79688,1.98438 L3.70312,1.98438 L0.90625,11.0156 L0,11.0156 L2.79688,1.98438 M5.875,6.17188 L5.875,9.10938 L7.60938,9.10938 C8.19271,9.10938 8.625,8.98958 8.90625,8.75 C9.1875,8.51042 9.32812,8.14062 9.32812,7.64062 C9.32812,7.14062 9.1875,6.77083 8.90625,6.53125 C8.625,6.29167 8.19271,6.17188 7.60938,6.17188 L5.875,6.17188 M5.875,2.875 L5.875,5.29688 L7.46875,5.29688 C8,5.29688 8.39583,5.19531 8.65625,4.99219 C8.91667,4.78906 9.04688,4.48438 9.04688,4.07812 C9.04688,3.67188 8.91667,3.36979 8.65625,3.17188 C8.39583,2.97396 8,2.875 7.46875,2.875 L5.875,2.875 M4.78125,1.98438 L7.54688,1.98438 C8.38021,1.98438 9.02083,2.15625 9.46875,2.5 C9.91667,2.84375 10.1406,3.33333 10.1406,3.96875 C10.1406,4.45833 10.026,4.84635 9.79688,5.13281 C9.56771,5.41927 9.22917,5.59896 8.78125,5.67188 C9.3125,5.78646 9.72656,6.02604 10.0234,6.39062 C10.3203,6.75521 10.4688,7.20833 10.4688,7.75 C10.4688,8.46875 10.2266,9.02344 9.74219,9.41406 C9.25781,9.80469 8.5625,10 7.65625,10 L4.78125,10 L4.78125,1.98438"/>
</g>

<g fill="none" stroke="#000000" stroke-opacity="1" stroke-width="1" stroke-linecap="square" stroke-linejoin="bevel" transform="matrix(2,0,0,2,364.766,23)"
font-family="sans" font-size="11" font-weight="100" font-style="normal" 
>
</g>

<g fill="none" stroke="#000000" stroke-opacity="1" stroke-width="1" stroke-linecap="square" stroke-linejoin="bevel" transform="matrix(2,0,0,2,364.766,23)"
font-family="Ubuntu" font-size="11" font-weight="400" font-style="normal" 
>
</g>

<g fill="none" stroke="#000000" stroke-opacity="1" stroke-width="1" stroke-linecap="square" stroke-linejoin="bevel" transform="matrix(2,0,0,2,0,247.28)"
font-family="Ubuntu" font-size="11" font-weight="400" font-style="normal" 
>
</g>

<g fill="none" stroke="#000000" stroke-opacity="1" stroke-width="1" stroke-linecap="square" stroke-linejoin="bevel" transform="matrix(2,0,0,2,0,247.28)"
font-family="Ubuntu" font-size="11" font-weight="400" font-style="normal" 
>
</g>

<g fill="none" stroke="#000000" stroke-opacity="1" stroke-width="1" stroke-linecap="square" stroke-linejoin="bevel" transform="matrix(2,0,0,2,0,247.28)"
font-family="Ubuntu" font-size="11" font-weight="400" font-style="normal" 
>
</g>

<g fill="none" stroke="#000000" stroke-opacity="1" stroke-width="1" stroke-linecap="square" stroke-linejoin="round" transform="matrix(2,0,0,2,0,247.28)"
font-family="Ubuntu" font-size="11" font-weight="400" font-style="normal" 
>
<ellipse cx="27" cy="-95.638" rx="26.5" ry="17.5"/>
</g>

<g fill="none" stroke="#000000" stroke-opacity="1" stroke-width="1" stroke-linecap="square" stroke-linejoin="bevel" transform="matrix(2,0,0,2,0,247.28)"
font-family="Ubuntu" font-size="11" font-weight="400" font-style="normal" 
>
</g>

<g fill="none" stroke="#000000" stroke-opacity="1" stroke-width="1" stroke-linecap="square" stroke-linejoin="bevel" transform="matrix(2,0,0,2,42.625,43.004)"
font-family="Ubuntu" font-size="11" font-weight="400" font-style="normal" 
>
</g>

<g fill="none" stroke="#000000" stroke-opacity="1" stroke-width="1" stroke-linecap="square" stroke-linejoin="bevel" transform="matrix(2,0,0,2,42.625,43.004)"
font-family="sans" font-size="11" font-weight="100" font-style="normal" 
>
</g>

<g fill="#000000" fill-opacity="1" stroke="#000000" stroke-opacity="1" stroke-width="1" stroke-linecap="square" stroke-linejoin="round" transform="matrix(2,0,0,2,42.625,43.004)"
font-family="sans" font-size="11" font-weight="100" font-style="normal" 
>
<path vector-effect="none" fill-rule="nonzero" d="M2.79688,1.98438 L3.70312,1.98438 L0.90625,11.0156 L0,11.0156 L2.79688,1.98438 M10.7812,2.59375 L10.7812,3.75 C10.4167,3.40625 10.0286,3.15104 9.61719,2.98438 C9.20573,2.81771 8.76562,2.73438 8.29688,2.73438 C7.38021,2.73438 6.67969,3.01302 6.19531,3.57031 C5.71094,4.1276 5.46875,4.9375 5.46875,6 C5.46875,7.05208 5.71094,7.85938 6.19531,8.42188 C6.67969,8.98438 7.38021,9.26562 8.29688,9.26562 C8.76562,9.26562 9.20573,9.18229 9.61719,9.01562 C10.0286,8.84896 10.4167,8.59375 10.7812,8.25 L10.7812,9.375 C10.4062,9.63542 10.0078,9.83073 9.58594,9.96094 C9.16406,10.0911 8.71354,10.1562 8.23438,10.1562 C7.02604,10.1562 6.07292,9.78385 5.375,9.03906 C4.67708,8.29427 4.32812,7.28125 4.32812,6 C4.32812,4.70833 4.67708,3.6901 5.375,2.94531 C6.07292,2.20052 7.02604,1.82812 8.23438,1.82812 C8.71354,1.82812 9.16667,1.89323 9.59375,2.02344 C10.0208,2.15365 10.4167,2.34375 10.7812,2.59375 "/>
</g>

<g fill="none" stroke="#000000" stroke-opacity="1" stroke-width="1" stroke-linecap="square" stroke-linejoin="bevel" transform="matrix(2,0,0,2,42.625,43.004)"
font-family="sans" font-size="11" font-weight="100" font-style="normal" 
>
</g>

<g fill="none" stroke="#000000" stroke-opacity="1" stroke-width="1" stroke-linecap="square" stroke-linejoin="bevel" transform="matrix(2,0,0,2,42.625,43.004)"
font-family="Ubuntu" font-size="11" font-weight="400" font-style="normal" 
>
</g>

<g fill="none" stroke="#000000" stroke-opacity="1" stroke-width="1" stroke-linecap="square" stroke-linejoin="bevel" transform="matrix(2,0,0,2,0,247.28)"
font-family="Ubuntu" font-size="11" font-weight="400" font-style="normal" 
>
</g>

<g fill="none" stroke="#000000" stroke-opacity="1" stroke-width="1" stroke-linecap="square" stroke-linejoin="bevel" transform="matrix(2,0,0,2,0,247.28)"
font-family="Ubuntu" font-size="11" font-weight="400" font-style="normal" 
>
</g>

<g fill="none" stroke="#000000" stroke-opacity="1" stroke-width="1" stroke-linecap="square" stroke-linejoin="bevel" transform="matrix(2,0,0,2,0,247.28)"
font-family="Ubuntu" font-size="11" font-weight="400" font-style="normal" 
>
</g>

<g fill="none" stroke="#000000" stroke-opacity="1" stroke-width="1" stroke-linecap="square" stroke-linejoin="round" transform="matrix(2,0,0,2,0,247.28)"
font-family="Ubuntu" font-size="11" font-weight="400" font-style="normal" 
>
<ellipse cx="27" cy="-30.638" rx="26.5" ry="17.5"/>
</g>

<g fill="none" stroke="#000000" stroke-opacity="1" stroke-width="1" stroke-linecap="square" stroke-linejoin="bevel" transform="matrix(2,0,0,2,0,247.28)"
font-family="Ubuntu" font-size="11" font-weight="400" font-style="normal" 
>
</g>

<g fill="none" stroke="#000000" stroke-opacity="1" stroke-width="1" stroke-linecap="square" stroke-linejoin="bevel" transform="matrix(2,0,0,2,41.8281,173.004)"
font-family="Ubuntu" font-size="11" font-weight="400" font-style="normal" 
>
</g>

<g fill="none" stroke="#000000" stroke-opacity="1" stroke-width="1" stroke-linecap="square" stroke-linejoin="bevel" transform="matrix(2,0,0,2,41.8281,173.004)"
font-family="sans" font-size="11" font-weight="100" font-style="normal" 
>
</g>

<g fill="#000000" fill-opacity="1" stroke="#000000" stroke-opacity="1" stroke-width="1" stroke-linecap="square" stroke-linejoin="round" transform="matrix(2,0,0,2,41.8281,173.004)"
font-family="sans" font-size="11" font-weight="100" font-style="normal" 
>
<path vector-effect="none" fill-rule="nonzero" d="M2.79688,1.98438 L3.70312,1.98438 L0.90625,11.0156 L0,11.0156 L2.79688,1.98438 M5.875,2.875 L5.875,9.10938 L7.17188,9.10938 C8.28646,9.10938 9.09896,8.85938 9.60938,8.35938 C10.1198,7.85938 10.375,7.06771 10.375,5.98438 C10.375,4.91146 10.1198,4.125 9.60938,3.625 C9.09896,3.125 8.28646,2.875 7.17188,2.875 L5.875,2.875 M4.78125,1.98438 L7.01562,1.98438 C8.56771,1.98438 9.70833,2.30729 10.4375,2.95312 C11.1667,3.59896 11.5312,4.60938 11.5312,5.98438 C11.5312,7.36979 11.1641,8.38542 10.4297,9.03125 C9.69531,9.67708 8.55729,10 7.01562,10 L4.78125,10 L4.78125,1.98438"/>
</g>

<g fill="none" stroke="#000000" stroke-opacity="1" stroke-width="1" stroke-linecap="square" stroke-linejoin="bevel" transform="matrix(2,0,0,2,41.8281,173.004)"
font-family="sans" font-size="11" font-weight="100" font-style="normal" 
>
</g>

<g fill="none" stroke="#000000" stroke-opacity="1" stroke-width="1" stroke-linecap="square" stroke-linejoin="bevel" transform="matrix(2,0,0,2,41.8281,173.004)"
font-family="Ubuntu" font-size="11" font-weight="400" font-style="normal" 
>
</g>

<g fill="none" stroke="#000000" stroke-opacity="1" stroke-width="1" stroke-linecap="square" stroke-linejoin="bevel" transform="matrix(2,0,0,2,0,247.28)"
font-family="Ubuntu" font-size="11" font-weight="400" font-style="normal" 
>
</g>

<g fill="none" stroke="#000000" stroke-opacity="1" stroke-width="1" stroke-linecap="square" stroke-linejoin="bevel" transform="matrix(2,0,0,2,0,247.28)"
font-family="Ubuntu" font-size="11" font-weight="400" font-style="normal" 
>
</g>

<g fill="none" stroke="#000000" stroke-opacity="1" stroke-width="1" stroke-linecap="square" stroke-linejoin="bevel" transform="matrix(2,0,0,2,0,247.28)"
font-family="Ubuntu" font-size="11" font-weight="400" font-style="normal" 
>
</g>

<g fill="none" stroke="#000000" stroke-opacity="1" stroke-width="1" stroke-linecap="square" stroke-linejoin="round" transform="matrix(2,0,0,2,0,247.28)"
font-family="Ubuntu" font-size="11" font-weight="400" font-style="normal" 
>
<path vector-effect="none" fill-rule="evenodd" d="M53.288,-26.233 C80.292,-22.94 123.22,-21.905 153,-41.638 C160.04,-46.299 169.03,-63.651 176.01,-79.112 "/>
</g>

<g fill="none" stroke="#000000" stroke-opacity="1" stroke-width="1" stroke-linecap="square" stroke-linejoin="bevel" transform="matrix(2,0,0,2,0,247.28)"
font-family="Ubuntu" font-size="11" font-weight="400" font-style="normal" 
>
</g>

<g fill="none" stroke="#000000" stroke-opacity="1" stroke-width="1" stroke-linecap="square" stroke-linejoin="bevel" transform="matrix(2,0,0,2,125.156,136.004)"
font-family="Ubuntu" font-size="11" font-weight="400" font-style="normal" 
>
</g>

<g fill="none" stroke="#000000" stroke-opacity="1" stroke-width="1" stroke-linecap="square" stroke-linejoin="bevel" transform="matrix(2,0,0,2,125.156,136.004)"
font-family="sans" font-size="11" font-weight="100" font-style="normal" 
>
</g>

<g fill="#000000" fill-opacity="1" stroke="#000000" stroke-opacity="1" stroke-width="1" stroke-linecap="square" stroke-linejoin="round" transform="matrix(2,0,0,2,125.156,136.004)"
font-family="sans" font-size="11" font-weight="100" font-style="normal" 
>
<path vector-effect="none" fill-rule="nonzero" d="M2.79688,1.98438 L3.70312,1.98438 L0.90625,11.0156 L0,11.0156 L2.79688,1.98438 M5.71875,2.28125 L5.71875,3.98438 L7.75,3.98438 L7.75,4.75 L5.71875,4.75 L5.71875,8.01562 C5.71875,8.50521 5.78646,8.82031 5.92188,8.96094 C6.05729,9.10156 6.32812,9.17188 6.73438,9.17188 L7.75,9.17188 L7.75,10 L6.73438,10 C5.97396,10 5.44792,9.85677 5.15625,9.57031 C4.86458,9.28385 4.71875,8.76562 4.71875,8.01562 L4.71875,4.75 L4,4.75 L4,3.98438 L4.71875,3.98438 L4.71875,2.28125 L5.71875,2.28125 M8.95312,7.625 L8.95312,3.98438 L9.9375,3.98438 L9.9375,7.59375 C9.9375,8.15625 10.0495,8.58073 10.2734,8.86719 C10.4974,9.15365 10.8281,9.29688 11.2656,9.29688 C11.8073,9.29688 12.2318,9.1276 12.5391,8.78906 C12.8464,8.45052 13,7.98438 13,7.39062 L13,3.98438 L13.9844,3.98438 L13.9844,10 L13,10 L13,9.07812 C12.7604,9.44271 12.4818,9.71354 12.1641,9.89062 C11.8464,10.0677 11.4792,10.1562 11.0625,10.1562 C10.375,10.1562 9.85156,9.9401 9.49219,9.50781 C9.13281,9.07552 8.95312,8.44792 8.95312,7.625 M19.5,4.90625 C19.3958,4.84375 19.2786,4.79688 19.1484,4.76562 C19.0182,4.73438 18.875,4.71875 18.7188,4.71875 C18.1562,4.71875 17.7266,4.90104 17.4297,5.26562 C17.1328,5.63021 16.9844,6.15104 16.9844,6.82812 L16.9844,10 L15.9844,10 L15.9844,3.98438 L16.9844,3.98438 L16.9844,4.92188 C17.1823,4.55729 17.4479,4.28646 17.7812,4.10938 C18.1146,3.93229 18.5208,3.84375 19,3.84375 C19.0729,3.84375 19.1484,3.84635 19.2266,3.85156 C19.3047,3.85677 19.3958,3.86979 19.5,3.89062 L19.5,4.90625 M21.5156,2.28125 L21.5156,3.98438 L23.5469,3.98438 L23.5469,4.75 L21.5156,4.75 L21.5156,8.01562 C21.5156,8.50521 21.5833,8.82031 21.7188,8.96094 C21.8542,9.10156 22.125,9.17188 22.5312,9.17188 L23.5469,9.17188 L23.5469,10 L22.5312,10 C21.7708,10 21.2448,9.85677 20.9531,9.57031 C20.6615,9.28385 20.5156,8.76562 20.5156,8.01562 L20.5156,4.75 L19.7969,4.75 L19.7969,3.98438 L20.5156,3.98438 L20.5156,2.28125 L21.5156,2.28125 M24.8438,1.64062 L25.8438,1.64062 L25.8438,10 L24.8438,10 L24.8438,1.64062 M33.0469,6.75 L33.0469,7.23438 L28.5,7.23438 C28.5417,7.91146 28.7448,8.42708 29.1094,8.78125 C29.474,9.13542 29.9844,9.3125 30.6406,9.3125 C31.026,9.3125 31.3958,9.26562 31.75,9.17188 C32.1042,9.07812 32.4583,8.94271 32.8125,8.76562 L32.8125,9.6875 C32.4583,9.84375 32.0938,9.96094 31.7188,10.0391 C31.3438,10.1172 30.9688,10.1562 30.5938,10.1562 C29.625,10.1562 28.862,9.8776 28.3047,9.32031 C27.7474,8.76302 27.4688,8.00521 27.4688,7.04688 C27.4688,6.06771 27.7344,5.28906 28.2656,4.71094 C28.7969,4.13281 29.5156,3.84375 30.4219,3.84375 C31.224,3.84375 31.862,4.10417 32.3359,4.625 C32.8099,5.14583 33.0469,5.85417 33.0469,6.75 M32.0469,6.45312 C32.0469,5.91146 31.8984,5.47917 31.6016,5.15625 C31.3047,4.83333 30.9115,4.67188 30.4219,4.67188 C29.8698,4.67188 29.4297,4.82812 29.1016,5.14062 C28.7734,5.45312 28.5833,5.89062 28.5312,6.45312 L32.0469,6.45312 M34.9844,9.09375 L36.7656,9.09375 L36.7656,2.96875 L34.8281,3.35938 L34.8281,2.375 L36.75,1.98438 L37.8438,1.98438 L37.8438,9.09375 L39.6094,9.09375 L39.6094,10 L34.9844,10 L34.9844,9.09375 M43.4062,1.98438 L44.3125,1.98438 L41.5156,11.0156 L40.6094,11.0156 L43.4062,1.98438 M49.6719,4.21875 L49.6719,5.14062 C49.401,4.98438 49.125,4.86719 48.8438,4.78906 C48.5625,4.71094 48.276,4.67188 47.9844,4.67188 C47.349,4.67188 46.8542,4.875 46.5,5.28125 C46.1458,5.6875 45.9688,6.26042 45.9688,7 C45.9688,7.72917 46.1458,8.29688 46.5,8.70312 C46.8542,9.10938 47.349,9.3125 47.9844,9.3125 C48.276,9.3125 48.5625,9.27604 48.8438,9.20312 C49.125,9.13021 49.401,9.01562 49.6719,8.85938 L49.6719,9.76562 C49.401,9.90104 49.1172,10 48.8203,10.0625 C48.5234,10.125 48.2083,10.1562 47.875,10.1562 C46.9688,10.1562 46.25,9.8724 45.7188,9.30469 C45.1875,8.73698 44.9219,7.96875 44.9219,7 C44.9219,6.02083 45.1901,5.25 45.7266,4.6875 C46.263,4.125 47,3.84375 47.9375,3.84375 C48.25,3.84375 48.5495,3.875 48.8359,3.9375 C49.1224,4 49.401,4.09375 49.6719,4.21875 M56.0781,5.14062 C56.3281,4.69271 56.625,4.36458 56.9688,4.15625 C57.3125,3.94792 57.7188,3.84375 58.1875,3.84375 C58.8125,3.84375 59.2943,4.0625 59.6328,4.5 C59.9714,4.9375 60.1406,5.5625 60.1406,6.375 L60.1406,10 L59.1406,10 L59.1406,6.40625 C59.1406,5.82292 59.0391,5.39323 58.8359,5.11719 C58.6328,4.84115 58.3229,4.70312 57.9062,4.70312 C57.3958,4.70312 56.9922,4.8724 56.6953,5.21094 C56.3984,5.54948 56.25,6.01042 56.25,6.59375 L56.25,10 L55.25,10 L55.25,6.40625 C55.25,5.82292 55.1484,5.39323 54.9453,5.11719 C54.7422,4.84115 54.4271,4.70312 54,4.70312 C53.5,4.70312 53.1016,4.8724 52.8047,5.21094 C52.5078,5.54948 52.3594,6.01042 52.3594,6.59375 L52.3594,10 L51.3594,10 L51.3594,3.98438 L52.3594,3.98438 L52.3594,4.92188 C52.5781,4.54688 52.8464,4.27344 53.1641,4.10156 C53.4818,3.92969 53.8542,3.84375 54.2812,3.84375 C54.7188,3.84375 55.0911,3.95312 55.3984,4.17188 C55.7057,4.39062 55.9323,4.71354 56.0781,5.14062 M66.0625,4.89062 L66.0625,1.64062 L67.0469,1.64062 L67.0469,10 L66.0625,10 L66.0625,9.09375 C65.8542,9.45833 65.5911,9.72656 65.2734,9.89844 C64.9557,10.0703 64.5729,10.1562 64.125,10.1562 C63.4062,10.1562 62.8177,9.86719 62.3594,9.28906 C61.901,8.71094 61.6719,7.94792 61.6719,7 C61.6719,6.05208 61.901,5.28906 62.3594,4.71094 C62.8177,4.13281 63.4062,3.84375 64.125,3.84375 C64.5729,3.84375 64.9557,3.92969 65.2734,4.10156 C65.5911,4.27344 65.8542,4.53646 66.0625,4.89062 M62.6875,7 C62.6875,7.72917 62.8385,8.29948 63.1406,8.71094 C63.4427,9.1224 63.8542,9.32812 64.375,9.32812 C64.8958,9.32812 65.3073,9.1224 65.6094,8.71094 C65.9115,8.29948 66.0625,7.72917 66.0625,7 C66.0625,6.27083 65.9115,5.70052 65.6094,5.28906 C65.3073,4.8776 64.8958,4.67188 64.375,4.67188 C63.8542,4.67188 63.4427,4.8776 63.1406,5.28906 C62.8385,5.70052 62.6875,6.27083 62.6875,7 M73.6406,11.8281 L73.6406,12.5938 L67.9219,12.5938 L67.9219,11.8281 L73.6406,11.8281 M73.8594,3.98438 L74.9062,3.98438 L76.7812,9.03125 L78.6719,3.98438 L79.7188,3.98438 L77.4531,10 L76.1094,10 L73.8594,3.98438 M86.2188,6.75 L86.2188,7.23438 L81.6719,7.23438 C81.7135,7.91146 81.9167,8.42708 82.2812,8.78125 C82.6458,9.13542 83.1562,9.3125 83.8125,9.3125 C84.1979,9.3125 84.5677,9.26562 84.9219,9.17188 C85.276,9.07812 85.6302,8.94271 85.9844,8.76562 L85.9844,9.6875 C85.6302,9.84375 85.2656,9.96094 84.8906,10.0391 C84.5156,10.1172 84.1406,10.1562 83.7656,10.1562 C82.7969,10.1562 82.0339,9.8776 81.4766,9.32031 C80.9193,8.76302 80.6406,8.00521 80.6406,7.04688 C80.6406,6.06771 80.9062,5.28906 81.4375,4.71094 C81.9688,4.13281 82.6875,3.84375 83.5938,3.84375 C84.3958,3.84375 85.0339,4.10417 85.5078,4.625 C85.9818,5.14583 86.2188,5.85417 86.2188,6.75 M85.2188,6.45312 C85.2188,5.91146 85.0703,5.47917 84.7734,5.15625 C84.4766,4.83333 84.0833,4.67188 83.5938,4.67188 C83.0417,4.67188 82.6016,4.82812 82.2734,5.14062 C81.9453,5.45312 81.7552,5.89062 81.7031,6.45312 L85.2188,6.45312 M87.8281,1.64062 L88.8281,1.64062 L88.8281,10 L87.8281,10 L87.8281,1.64062"/>
</g>

<g fill="none" stroke="#000000" stroke-opacity="1" stroke-width="1" stroke-linecap="square" stroke-linejoin="bevel" transform="matrix(2,0,0,2,125.156,136.004)"
font-family="sans" font-size="11" font-weight="100" font-style="normal" 
>
</g>

<g fill="none" stroke="#000000" stroke-opacity="1" stroke-width="1" stroke-linecap="square" stroke-linejoin="bevel" transform="matrix(2,0,0,2,125.156,136.004)"
font-family="Ubuntu" font-size="11" font-weight="400" font-style="normal" 
>
</g>

<g fill="none" stroke="#000000" stroke-opacity="1" stroke-width="1" stroke-linecap="square" stroke-linejoin="bevel" transform="matrix(2,0,0,2,0,247.28)"
font-family="Ubuntu" font-size="11" font-weight="400" font-style="normal" 
>
</g>

<g fill="#000000" fill-opacity="1" stroke="#000000" stroke-opacity="1" stroke-width="1" stroke-linecap="square" stroke-linejoin="round" transform="matrix(2,0,0,2,0,247.28)"
font-family="Ubuntu" font-size="11" font-weight="400" font-style="normal" 
>
<path vector-effect="none" fill-rule="evenodd" d="M176.01,-79.112 L179.248,-77.698 L180.05,-88.364 L172.772,-80.526 L176.01,-79.112"/>
</g>

<g fill="none" stroke="#000000" stroke-opacity="1" stroke-width="1" stroke-linecap="square" stroke-linejoin="bevel" transform="matrix(2,0,0,2,0,247.28)"
font-family="Ubuntu" font-size="11" font-weight="400" font-style="normal" 
>
</g>

<g fill="none" stroke="#000000" stroke-opacity="1" stroke-width="1" stroke-linecap="square" stroke-linejoin="bevel" transform="matrix(2,0,0,2,0,247.28)"
font-family="Ubuntu" font-size="11" font-weight="400" font-style="normal" 
>
</g>

<g fill="none" stroke="#000000" stroke-opacity="1" stroke-width="1" stroke-linecap="square" stroke-linejoin="bevel" transform="matrix(2,0,0,2,0,247.28)"
font-family="Ubuntu" font-size="11" font-weight="400" font-style="normal" 
>
</g>

<g fill="none" stroke="#000000" stroke-opacity="1" stroke-width="1" stroke-linecap="square" stroke-linejoin="bevel" transform="matrix(2,0,0,2,0,247.28)"
font-family="Ubuntu" font-size="11" font-weight="400" font-style="normal" 
>
</g>

<g fill="none" stroke="#000000" stroke-opacity="1" stroke-width="1" stroke-linecap="square" stroke-linejoin="round" transform="matrix(2,0,0,2,0,247.28)"
font-family="Ubuntu" font-size="11" font-weight="400" font-style="normal" 
>
<path vector-effect="none" fill-rule="evenodd" d="M53.982,-98.016 C56.688,-98.238 59.399,-98.45 62,-98.638 C91.782,-100.78 125.6,-102.64 150.54,-103.9 "/>
</g>

<g fill="none" stroke="#000000" stroke-opacity="1" stroke-width="1" stroke-linecap="square" stroke-linejoin="bevel" transform="matrix(2,0,0,2,0,247.28)"
font-family="Ubuntu" font-size="11" font-weight="400" font-style="normal" 
>
</g>

<g fill="none" stroke="#000000" stroke-opacity="1" stroke-width="1" stroke-linecap="square" stroke-linejoin="bevel" transform="matrix(2,0,0,2,125.156,12)"
font-family="Ubuntu" font-size="11" font-weight="400" font-style="normal" 
>
</g>

<g fill="none" stroke="#000000" stroke-opacity="1" stroke-width="1" stroke-linecap="square" stroke-linejoin="bevel" transform="matrix(2,0,0,2,125.156,12)"
font-family="sans" font-size="11" font-weight="100" font-style="normal" 
>
</g>

<g fill="#000000" fill-opacity="1" stroke="#000000" stroke-opacity="1" stroke-width="1" stroke-linecap="square" stroke-linejoin="round" transform="matrix(2,0,0,2,125.156,12)"
font-family="sans" font-size="11" font-weight="100" font-style="normal" 
>
<path vector-effect="none" fill-rule="nonzero" d="M2.79688,1.98438 L3.70312,1.98438 L0.90625,11.0156 L0,11.0156 L2.79688,1.98438 M5.71875,2.28125 L5.71875,3.98438 L7.75,3.98438 L7.75,4.75 L5.71875,4.75 L5.71875,8.01562 C5.71875,8.50521 5.78646,8.82031 5.92188,8.96094 C6.05729,9.10156 6.32812,9.17188 6.73438,9.17188 L7.75,9.17188 L7.75,10 L6.73438,10 C5.97396,10 5.44792,9.85677 5.15625,9.57031 C4.86458,9.28385 4.71875,8.76562 4.71875,8.01562 L4.71875,4.75 L4,4.75 L4,3.98438 L4.71875,3.98438 L4.71875,2.28125 L5.71875,2.28125 M8.95312,7.625 L8.95312,3.98438 L9.9375,3.98438 L9.9375,7.59375 C9.9375,8.15625 10.0495,8.58073 10.2734,8.86719 C10.4974,9.15365 10.8281,9.29688 11.2656,9.29688 C11.8073,9.29688 12.2318,9.1276 12.5391,8.78906 C12.8464,8.45052 13,7.98438 13,7.39062 L13,3.98438 L13.9844,3.98438 L13.9844,10 L13,10 L13,9.07812 C12.7604,9.44271 12.4818,9.71354 12.1641,9.89062 C11.8464,10.0677 11.4792,10.1562 11.0625,10.1562 C10.375,10.1562 9.85156,9.9401 9.49219,9.50781 C9.13281,9.07552 8.95312,8.44792 8.95312,7.625 M19.5,4.90625 C19.3958,4.84375 19.2786,4.79688 19.1484,4.76562 C19.0182,4.73438 18.875,4.71875 18.7188,4.71875 C18.1562,4.71875 17.7266,4.90104 17.4297,5.26562 C17.1328,5.63021 16.9844,6.15104 16.9844,6.82812 L16.9844,10 L15.9844,10 L15.9844,3.98438 L16.9844,3.98438 L16.9844,4.92188 C17.1823,4.55729 17.4479,4.28646 17.7812,4.10938 C18.1146,3.93229 18.5208,3.84375 19,3.84375 C19.0729,3.84375 19.1484,3.84635 19.2266,3.85156 C19.3047,3.85677 19.3958,3.86979 19.5,3.89062 L19.5,4.90625 M21.5156,2.28125 L21.5156,3.98438 L23.5469,3.98438 L23.5469,4.75 L21.5156,4.75 L21.5156,8.01562 C21.5156,8.50521 21.5833,8.82031 21.7188,8.96094 C21.8542,9.10156 22.125,9.17188 22.5312,9.17188 L23.5469,9.17188 L23.5469,10 L22.5312,10 C21.7708,10 21.2448,9.85677 20.9531,9.57031 C20.6615,9.28385 20.5156,8.76562 20.5156,8.01562 L20.5156,4.75 L19.7969,4.75 L19.7969,3.98438 L20.5156,3.98438 L20.5156,2.28125 L21.5156,2.28125 M24.8438,1.64062 L25.8438,1.64062 L25.8438,10 L24.8438,10 L24.8438,1.64062 M33.0469,6.75 L33.0469,7.23438 L28.5,7.23438 C28.5417,7.91146 28.7448,8.42708 29.1094,8.78125 C29.474,9.13542 29.9844,9.3125 30.6406,9.3125 C31.026,9.3125 31.3958,9.26562 31.75,9.17188 C32.1042,9.07812 32.4583,8.94271 32.8125,8.76562 L32.8125,9.6875 C32.4583,9.84375 32.0938,9.96094 31.7188,10.0391 C31.3438,10.1172 30.9688,10.1562 30.5938,10.1562 C29.625,10.1562 28.862,9.8776 28.3047,9.32031 C27.7474,8.76302 27.4688,8.00521 27.4688,7.04688 C27.4688,6.06771 27.7344,5.28906 28.2656,4.71094 C28.7969,4.13281 29.5156,3.84375 30.4219,3.84375 C31.224,3.84375 31.862,4.10417 32.3359,4.625 C32.8099,5.14583 33.0469,5.85417 33.0469,6.75 M32.0469,6.45312 C32.0469,5.91146 31.8984,5.47917 31.6016,5.15625 C31.3047,4.83333 30.9115,4.67188 30.4219,4.67188 C29.8698,4.67188 29.4297,4.82812 29.1016,5.14062 C28.7734,5.45312 28.5833,5.89062 28.5312,6.45312 L32.0469,6.45312 M34.9844,9.09375 L36.7656,9.09375 L36.7656,2.96875 L34.8281,3.35938 L34.8281,2.375 L36.75,1.98438 L37.8438,1.98438 L37.8438,9.09375 L39.6094,9.09375 L39.6094,10 L34.9844,10 L34.9844,9.09375 M43.4062,1.98438 L44.3125,1.98438 L41.5156,11.0156 L40.6094,11.0156 L43.4062,1.98438 M49.6719,4.21875 L49.6719,5.14062 C49.401,4.98438 49.125,4.86719 48.8438,4.78906 C48.5625,4.71094 48.276,4.67188 47.9844,4.67188 C47.349,4.67188 46.8542,4.875 46.5,5.28125 C46.1458,5.6875 45.9688,6.26042 45.9688,7 C45.9688,7.72917 46.1458,8.29688 46.5,8.70312 C46.8542,9.10938 47.349,9.3125 47.9844,9.3125 C48.276,9.3125 48.5625,9.27604 48.8438,9.20312 C49.125,9.13021 49.401,9.01562 49.6719,8.85938 L49.6719,9.76562 C49.401,9.90104 49.1172,10 48.8203,10.0625 C48.5234,10.125 48.2083,10.1562 47.875,10.1562 C46.9688,10.1562 46.25,9.8724 45.7188,9.30469 C45.1875,8.73698 44.9219,7.96875 44.9219,7 C44.9219,6.02083 45.1901,5.25 45.7266,4.6875 C46.263,4.125 47,3.84375 47.9375,3.84375 C48.25,3.84375 48.5495,3.875 48.8359,3.9375 C49.1224,4 49.401,4.09375 49.6719,4.21875 M56.0781,5.14062 C56.3281,4.69271 56.625,4.36458 56.9688,4.15625 C57.3125,3.94792 57.7188,3.84375 58.1875,3.84375 C58.8125,3.84375 59.2943,4.0625 59.6328,4.5 C59.9714,4.9375 60.1406,5.5625 60.1406,6.375 L60.1406,10 L59.1406,10 L59.1406,6.40625 C59.1406,5.82292 59.0391,5.39323 58.8359,5.11719 C58.6328,4.84115 58.3229,4.70312 57.9062,4.70312 C57.3958,4.70312 56.9922,4.8724 56.6953,5.21094 C56.3984,5.54948 56.25,6.01042 56.25,6.59375 L56.25,10 L55.25,10 L55.25,6.40625 C55.25,5.82292 55.1484,5.39323 54.9453,5.11719 C54.7422,4.84115 54.4271,4.70312 54,4.70312 C53.5,4.70312 53.1016,4.8724 52.8047,5.21094 C52.5078,5.54948 52.3594,6.01042 52.3594,6.59375 L52.3594,10 L51.3594,10 L51.3594,3.98438 L52.3594,3.98438 L52.3594,4.92188 C52.5781,4.54688 52.8464,4.27344 53.1641,4.10156 C53.4818,3.92969 53.8542,3.84375 54.2812,3.84375 C54.7188,3.84375 55.0911,3.95312 55.3984,4.17188 C55.7057,4.39062 55.9323,4.71354 56.0781,5.14062 M66.0625,4.89062 L66.0625,1.64062 L67.0469,1.64062 L67.0469,10 L66.0625,10 L66.0625,9.09375 C65.8542,9.45833 65.5911,9.72656 65.2734,9.89844 C64.9557,10.0703 64.5729,10.1562 64.125,10.1562 C63.4062,10.1562 62.8177,9.86719 62.3594,9.28906 C61.901,8.71094 61.6719,7.94792 61.6719,7 C61.6719,6.05208 61.901,5.28906 62.3594,4.71094 C62.8177,4.13281 63.4062,3.84375 64.125,3.84375 C64.5729,3.84375 64.9557,3.92969 65.2734,4.10156 C65.5911,4.27344 65.8542,4.53646 66.0625,4.89062 M62.6875,7 C62.6875,7.72917 62.8385,8.29948 63.1406,8.71094 C63.4427,9.1224 63.8542,9.32812 64.375,9.32812 C64.8958,9.32812 65.3073,9.1224 65.6094,8.71094 C65.9115,8.29948 66.0625,7.72917 66.0625,7 C66.0625,6.27083 65.9115,5.70052 65.6094,5.28906 C65.3073,4.8776 64.8958,4.67188 64.375,4.67188 C63.8542,4.67188 63.4427,4.8776 63.1406,5.28906 C62.8385,5.70052 62.6875,6.27083 62.6875,7 M73.6406,11.8281 L73.6406,12.5938 L67.9219,12.5938 L67.9219,11.8281 L73.6406,11.8281 M73.8594,3.98438 L74.9062,3.98438 L76.7812,9.03125 L78.6719,3.98438 L79.7188,3.98438 L77.4531,10 L76.1094,10 L73.8594,3.98438 M86.2188,6.75 L86.2188,7.23438 L81.6719,7.23438 C81.7135,7.91146 81.9167,8.42708 82.2812,8.78125 C82.6458,9.13542 83.1562,9.3125 83.8125,9.3125 C84.1979,9.3125 84.5677,9.26562 84.9219,9.17188 C85.276,9.07812 85.6302,8.94271 85.9844,8.76562 L85.9844,9.6875 C85.6302,9.84375 85.2656,9.96094 84.8906,10.0391 C84.5156,10.1172 84.1406,10.1562 83.7656,10.1562 C82.7969,10.1562 82.0339,9.8776 81.4766,9.32031 C80.9193,8.76302 80.6406,8.00521 80.6406,7.04688 C80.6406,6.06771 80.9062,5.28906 81.4375,4.71094 C81.9688,4.13281 82.6875,3.84375 83.5938,3.84375 C84.3958,3.84375 85.0339,4.10417 85.5078,4.625 C85.9818,5.14583 86.2188,5.85417 86.2188,6.75 M85.2188,6.45312 C85.2188,5.91146 85.0703,5.47917 84.7734,5.15625 C84.4766,4.83333 84.0833,4.67188 83.5938,4.67188 C83.0417,4.67188 82.6016,4.82812 82.2734,5.14062 C81.9453,5.45312 81.7552,5.89062 81.7031,6.45312 L85.2188,6.45312 M87.8281,1.64062 L88.8281,1.64062 L88.8281,10 L87.8281,10 L87.8281,1.64062"/>
</g>

<g fill="none" stroke="#000000" stroke-opacity="1" stroke-width="1" stroke-linecap="square" stroke-linejoin="bevel" transform="matrix(2,0,0,2,125.156,12)"
font-family="sans" font-size="11" font-weight="100" font-style="normal" 
>
</g>

<g fill="none" stroke="#000000" stroke-opacity="1" stroke-width="1" stroke-linecap="square" stroke-linejoin="bevel" transform="matrix(2,0,0,2,125.156,12)"
font-family="Ubuntu" font-size="11" font-weight="400" font-style="normal" 
>
</g>

<g fill="none" stroke="#000000" stroke-opacity="1" stroke-width="1" stroke-linecap="square" stroke-linejoin="bevel" transform="matrix(2,0,0,2,0,247.28)"
font-family="Ubuntu" font-size="11" font-weight="400" font-style="normal" 
>
</g>

<g fill="#000000" fill-opacity="1" stroke="#000000" stroke-opacity="1" stroke-width="1" stroke-linecap="square" stroke-linejoin="round" transform="matrix(2,0,0,2,0,247.28)"
font-family="Ubuntu" font-size="11" font-weight="400" font-style="normal" 
>
<path vector-effect="none" fill-rule="evenodd" d="M150.54,-103.9 L150.718,-100.362 L160.65,-104.41 L150.362,-107.439 L150.54,-103.9"/>
</g>

<g fill="none" stroke="#000000" stroke-opacity="1" stroke-width="1" stroke-linecap="square" stroke-linejoin="bevel" transform="matrix(2,0,0,2,0,247.28)"
font-family="Ubuntu" font-size="11" font-weight="400" font-style="normal" 
>
</g>

<g fill="none" stroke="#000000" stroke-opacity="1" stroke-width="1" stroke-linecap="square" stroke-linejoin="bevel" transform="matrix(2,0,0,2,0,247.28)"
font-family="Ubuntu" font-size="11" font-weight="400" font-style="normal" 
>
</g>

<g fill="none" stroke="#000000" stroke-opacity="1" stroke-width="1" stroke-linecap="square" stroke-linejoin="bevel" transform="matrix(2,0,0,2,0,247.28)"
font-family="Ubuntu" font-size="11" font-weight="400" font-style="normal" 
>
</g>

<g fill="none" stroke="#000000" stroke-opacity="1" stroke-width="1" stroke-linecap="square" stroke-linejoin="bevel" transform="matrix(2,0,0,2,0,247.28)"
font-family="Ubuntu" font-size="11" font-weight="400" font-style="normal" 
>
</g>

<g fill="none" stroke="#000000" stroke-opacity="1" stroke-width="1" stroke-linecap="square" stroke-linejoin="round" transform="matrix(2,0,0,2,0,247.28)"
font-family="Ubuntu" font-size="11" font-weight="400" font-style="normal" 
>
<path vector-effect="none" fill-rule="evenodd" d="M48.905,-84.867 C53.165,-82.939 57.669,-81.086 62,-79.638 C101.18,-66.529 117.35,-81.518 153,-60.638 C159.35,-56.917 165.12,-51.58 170.03,-46.044 "/>
</g>

<g fill="none" stroke="#000000" stroke-opacity="1" stroke-width="1" stroke-linecap="square" stroke-linejoin="bevel" transform="matrix(2,0,0,2,0,247.28)"
font-family="Ubuntu" font-size="11" font-weight="400" font-style="normal" 
>
</g>

<g fill="none" stroke="#000000" stroke-opacity="1" stroke-width="1" stroke-linecap="square" stroke-linejoin="bevel" transform="matrix(2,0,0,2,125.156,60.004)"
font-family="Ubuntu" font-size="11" font-weight="400" font-style="normal" 
>
</g>

<g fill="none" stroke="#000000" stroke-opacity="1" stroke-width="1" stroke-linecap="square" stroke-linejoin="bevel" transform="matrix(2,0,0,2,125.156,60.004)"
font-family="sans" font-size="11" font-weight="100" font-style="normal" 
>
</g>

<g fill="#000000" fill-opacity="1" stroke="#000000" stroke-opacity="1" stroke-width="1" stroke-linecap="square" stroke-linejoin="round" transform="matrix(2,0,0,2,125.156,60.004)"
font-family="sans" font-size="11" font-weight="100" font-style="normal" 
>
<path vector-effect="none" fill-rule="nonzero" d="M2.79688,1.98438 L3.70312,1.98438 L0.90625,11.0156 L0,11.0156 L2.79688,1.98438 M5.71875,2.28125 L5.71875,3.98438 L7.75,3.98438 L7.75,4.75 L5.71875,4.75 L5.71875,8.01562 C5.71875,8.50521 5.78646,8.82031 5.92188,8.96094 C6.05729,9.10156 6.32812,9.17188 6.73438,9.17188 L7.75,9.17188 L7.75,10 L6.73438,10 C5.97396,10 5.44792,9.85677 5.15625,9.57031 C4.86458,9.28385 4.71875,8.76562 4.71875,8.01562 L4.71875,4.75 L4,4.75 L4,3.98438 L4.71875,3.98438 L4.71875,2.28125 L5.71875,2.28125 M8.95312,7.625 L8.95312,3.98438 L9.9375,3.98438 L9.9375,7.59375 C9.9375,8.15625 10.0495,8.58073 10.2734,8.86719 C10.4974,9.15365 10.8281,9.29688 11.2656,9.29688 C11.8073,9.29688 12.2318,9.1276 12.5391,8.78906 C12.8464,8.45052 13,7.98438 13,7.39062 L13,3.98438 L13.9844,3.98438 L13.9844,10 L13,10 L13,9.07812 C12.7604,9.44271 12.4818,9.71354 12.1641,9.89062 C11.8464,10.0677 11.4792,10.1562 11.0625,10.1562 C10.375,10.1562 9.85156,9.9401 9.49219,9.50781 C9.13281,9.07552 8.95312,8.44792 8.95312,7.625 M19.5,4.90625 C19.3958,4.84375 19.2786,4.79688 19.1484,4.76562 C19.0182,4.73438 18.875,4.71875 18.7188,4.71875 C18.1562,4.71875 17.7266,4.90104 17.4297,5.26562 C17.1328,5.63021 16.9844,6.15104 16.9844,6.82812 L16.9844,10 L15.9844,10 L15.9844,3.98438 L16.9844,3.98438 L16.9844,4.92188 C17.1823,4.55729 17.4479,4.28646 17.7812,4.10938 C18.1146,3.93229 18.5208,3.84375 19,3.84375 C19.0729,3.84375 19.1484,3.84635 19.2266,3.85156 C19.3047,3.85677 19.3958,3.86979 19.5,3.89062 L19.5,4.90625 M21.5156,2.28125 L21.5156,3.98438 L23.5469,3.98438 L23.5469,4.75 L21.5156,4.75 L21.5156,8.01562 C21.5156,8.50521 21.5833,8.82031 21.7188,8.96094 C21.8542,9.10156 22.125,9.17188 22.5312,9.17188 L23.5469,9.17188 L23.5469,10 L22.5312,10 C21.7708,10 21.2448,9.85677 20.9531,9.57031 C20.6615,9.28385 20.5156,8.76562 20.5156,8.01562 L20.5156,4.75 L19.7969,4.75 L19.7969,3.98438 L20.5156,3.98438 L20.5156,2.28125 L21.5156,2.28125 M24.8438,1.64062 L25.8438,1.64062 L25.8438,10 L24.8438,10 L24.8438,1.64062 M33.0469,6.75 L33.0469,7.23438 L28.5,7.23438 C28.5417,7.91146 28.7448,8.42708 29.1094,8.78125 C29.474,9.13542 29.9844,9.3125 30.6406,9.3125 C31.026,9.3125 31.3958,9.26562 31.75,9.17188 C32.1042,9.07812 32.4583,8.94271 32.8125,8.76562 L32.8125,9.6875 C32.4583,9.84375 32.0938,9.96094 31.7188,10.0391 C31.3438,10.1172 30.9688,10.1562 30.5938,10.1562 C29.625,10.1562 28.862,9.8776 28.3047,9.32031 C27.7474,8.76302 27.4688,8.00521 27.4688,7.04688 C27.4688,6.06771 27.7344,5.28906 28.2656,4.71094 C28.7969,4.13281 29.5156,3.84375 30.4219,3.84375 C31.224,3.84375 31.862,4.10417 32.3359,4.625 C32.8099,5.14583 33.0469,5.85417 33.0469,6.75 M32.0469,6.45312 C32.0469,5.91146 31.8984,5.47917 31.6016,5.15625 C31.3047,4.83333 30.9115,4.67188 30.4219,4.67188 C29.8698,4.67188 29.4297,4.82812 29.1016,5.14062 C28.7734,5.45312 28.5833,5.89062 28.5312,6.45312 L32.0469,6.45312 M34.9844,9.09375 L36.7656,9.09375 L36.7656,2.96875 L34.8281,3.35938 L34.8281,2.375 L36.75,1.98438 L37.8438,1.98438 L37.8438,9.09375 L39.6094,9.09375 L39.6094,10 L34.9844,10 L34.9844,9.09375 M43.4062,1.98438 L44.3125,1.98438 L41.5156,11.0156 L40.6094,11.0156 L43.4062,1.98438 M49.6719,4.21875 L49.6719,5.14062 C49.401,4.98438 49.125,4.86719 48.8438,4.78906 C48.5625,4.71094 48.276,4.67188 47.9844,4.67188 C47.349,4.67188 46.8542,4.875 46.5,5.28125 C46.1458,5.6875 45.9688,6.26042 45.9688,7 C45.9688,7.72917 46.1458,8.29688 46.5,8.70312 C46.8542,9.10938 47.349,9.3125 47.9844,9.3125 C48.276,9.3125 48.5625,9.27604 48.8438,9.20312 C49.125,9.13021 49.401,9.01562 49.6719,8.85938 L49.6719,9.76562 C49.401,9.90104 49.1172,10 48.8203,10.0625 C48.5234,10.125 48.2083,10.1562 47.875,10.1562 C46.9688,10.1562 46.25,9.8724 45.7188,9.30469 C45.1875,8.73698 44.9219,7.96875 44.9219,7 C44.9219,6.02083 45.1901,5.25 45.7266,4.6875 C46.263,4.125 47,3.84375 47.9375,3.84375 C48.25,3.84375 48.5495,3.875 48.8359,3.9375 C49.1224,4 49.401,4.09375 49.6719,4.21875 M56.0781,5.14062 C56.3281,4.69271 56.625,4.36458 56.9688,4.15625 C57.3125,3.94792 57.7188,3.84375 58.1875,3.84375 C58.8125,3.84375 59.2943,4.0625 59.6328,4.5 C59.9714,4.9375 60.1406,5.5625 60.1406,6.375 L60.1406,10 L59.1406,10 L59.1406,6.40625 C59.1406,5.82292 59.0391,5.39323 58.8359,5.11719 C58.6328,4.84115 58.3229,4.70312 57.9062,4.70312 C57.3958,4.70312 56.9922,4.8724 56.6953,5.21094 C56.3984,5.54948 56.25,6.01042 56.25,6.59375 L56.25,10 L55.25,10 L55.25,6.40625 C55.25,5.82292 55.1484,5.39323 54.9453,5.11719 C54.7422,4.84115 54.4271,4.70312 54,4.70312 C53.5,4.70312 53.1016,4.8724 52.8047,5.21094 C52.5078,5.54948 52.3594,6.01042 52.3594,6.59375 L52.3594,10 L51.3594,10 L51.3594,3.98438 L52.3594,3.98438 L52.3594,4.92188 C52.5781,4.54688 52.8464,4.27344 53.1641,4.10156 C53.4818,3.92969 53.8542,3.84375 54.2812,3.84375 C54.7188,3.84375 55.0911,3.95312 55.3984,4.17188 C55.7057,4.39062 55.9323,4.71354 56.0781,5.14062 M66.0625,4.89062 L66.0625,1.64062 L67.0469,1.64062 L67.0469,10 L66.0625,10 L66.0625,9.09375 C65.8542,9.45833 65.5911,9.72656 65.2734,9.89844 C64.9557,10.0703 64.5729,10.1562 64.125,10.1562 C63.4062,10.1562 62.8177,9.86719 62.3594,9.28906 C61.901,8.71094 61.6719,7.94792 61.6719,7 C61.6719,6.05208 61.901,5.28906 62.3594,4.71094 C62.8177,4.13281 63.4062,3.84375 64.125,3.84375 C64.5729,3.84375 64.9557,3.92969 65.2734,4.10156 C65.5911,4.27344 65.8542,4.53646 66.0625,4.89062 M62.6875,7 C62.6875,7.72917 62.8385,8.29948 63.1406,8.71094 C63.4427,9.1224 63.8542,9.32812 64.375,9.32812 C64.8958,9.32812 65.3073,9.1224 65.6094,8.71094 C65.9115,8.29948 66.0625,7.72917 66.0625,7 C66.0625,6.27083 65.9115,5.70052 65.6094,5.28906 C65.3073,4.8776 64.8958,4.67188 64.375,4.67188 C63.8542,4.67188 63.4427,4.8776 63.1406,5.28906 C62.8385,5.70052 62.6875,6.27083 62.6875,7 M73.6406,11.8281 L73.6406,12.5938 L67.9219,12.5938 L67.9219,11.8281 L73.6406,11.8281 M73.8594,3.98438 L74.9062,3.98438 L76.7812,9.03125 L78.6719,3.98438 L79.7188,3.98438 L77.4531,10 L76.1094,10 L73.8594,3.98438 M86.2188,6.75 L86.2188,7.23438 L81.6719,7.23438 C81.7135,7.91146 81.9167,8.42708 82.2812,8.78125 C82.6458,9.13542 83.1562,9.3125 83.8125,9.3125 C84.1979,9.3125 84.5677,9.26562 84.9219,9.17188 C85.276,9.07812 85.6302,8.94271 85.9844,8.76562 L85.9844,9.6875 C85.6302,9.84375 85.2656,9.96094 84.8906,10.0391 C84.5156,10.1172 84.1406,10.1562 83.7656,10.1562 C82.7969,10.1562 82.0339,9.8776 81.4766,9.32031 C80.9193,8.76302 80.6406,8.00521 80.6406,7.04688 C80.6406,6.06771 80.9062,5.28906 81.4375,4.71094 C81.9688,4.13281 82.6875,3.84375 83.5938,3.84375 C84.3958,3.84375 85.0339,4.10417 85.5078,4.625 C85.9818,5.14583 86.2188,5.85417 86.2188,6.75 M85.2188,6.45312 C85.2188,5.91146 85.0703,5.47917 84.7734,5.15625 C84.4766,4.83333 84.0833,4.67188 83.5938,4.67188 C83.0417,4.67188 82.6016,4.82812 82.2734,5.14062 C81.9453,5.45312 81.7552,5.89062 81.7031,6.45312 L85.2188,6.45312 M87.8281,1.64062 L88.8281,1.64062 L88.8281,10 L87.8281,10 L87.8281,1.64062"/>
</g>

<g fill="none" stroke="#000000" stroke-opacity="1" stroke-width="1" stroke-linecap="square" stroke-linejoin="bevel" transform="matrix(2,0,0,2,125.156,60.004)"
font-family="sans" font-size="11" font-weight="100" font-style="normal" 
>
</g>

<g fill="none" stroke="#000000" stroke-opacity="1" stroke-width="1" stroke-linecap="square" stroke-linejoin="bevel" transform="matrix(2,0,0,2,125.156,60.004)"
font-family="Ubuntu" font-size="11" font-weight="400" font-style="normal" 
>
</g>

<g fill="none" stroke="#000000" stroke-opacity="1" stroke-width="1" stroke-linecap="square" stroke-linejoin="bevel" transform="matrix(2,0,0,2,0,247.28)"
font-family="Ubuntu" font-size="11" font-weight="400" font-style="normal" 
>
</g>

<g fill="#000000" fill-opacity="1" stroke="#000000" stroke-opacity="1" stroke-width="1" stroke-linecap="square" stroke-linejoin="round" transform="matrix(2,0,0,2,0,247.28)"
font-family="Ubuntu" font-size="11" font-weight="400" font-style="normal" 
>
<path vector-effect="none" fill-rule="evenodd" d="M170.03,-46.044 L167.199,-43.7515 L176.58,-37.955 L172.861,-48.3365 L170.03,-46.044"/>
</g>

<g fill="none" stroke="#000000" stroke-opacity="1" stroke-width="1" stroke-linecap="square" stroke-linejoin="bevel" transform="matrix(2,0,0,2,0,247.28)"
font-family="Ubuntu" font-size="11" font-weight="400" font-style="normal" 
>
</g>

<g fill="none" stroke="#000000" stroke-opacity="1" stroke-width="1" stroke-linecap="square" stroke-linejoin="bevel" transform="matrix(2,0,0,2,0,247.28)"
font-family="Ubuntu" font-size="11" font-weight="400" font-style="normal" 
>
</g>

<g fill="none" stroke="#000000" stroke-opacity="1" stroke-width="1" stroke-linecap="square" stroke-linejoin="bevel" transform="matrix(2,0,0,2,0,247.28)"
font-family="Ubuntu" font-size="11" font-weight="400" font-style="normal" 
>
</g>

<g fill="none" stroke="#000000" stroke-opacity="1" stroke-width="1" stroke-linecap="square" stroke-linejoin="bevel" transform="matrix(2,0,0,2,0,247.28)"
font-family="Ubuntu" font-size="11" font-weight="400" font-style="normal" 
>
</g>

<g fill="none" stroke="#000000" stroke-opacity="1" stroke-width="1" stroke-linecap="square" stroke-linejoin="round" transform="matrix(2,0,0,2,0,247.28)"
font-family="Ubuntu" font-size="11" font-weight="400" font-style="normal" 
>
<path vector-effect="none" fill-rule="evenodd" d="M44.265,-16.779 C49.577,-13.069 55.731,-9.5586 62,-7.6375 C100.67,4.2134 113.32,0.21131 153,-7.6375 C153.9,-7.8164 154.81,-8.0196 155.73,-8.2438 "/>
</g>

<g fill="none" stroke="#000000" stroke-opacity="1" stroke-width="1" stroke-linecap="square" stroke-linejoin="bevel" transform="matrix(2,0,0,2,0,247.28)"
font-family="Ubuntu" font-size="11" font-weight="400" font-style="normal" 
>
</g>

<g fill="none" stroke="#000000" stroke-opacity="1" stroke-width="1" stroke-linecap="square" stroke-linejoin="bevel" transform="matrix(2,0,0,2,125.156,204.004)"
font-family="Ubuntu" font-size="11" font-weight="400" font-style="normal" 
>
</g>

<g fill="none" stroke="#000000" stroke-opacity="1" stroke-width="1" stroke-linecap="square" stroke-linejoin="bevel" transform="matrix(2,0,0,2,125.156,204.004)"
font-family="sans" font-size="11" font-weight="100" font-style="normal" 
>
</g>

<g fill="#000000" fill-opacity="1" stroke="#000000" stroke-opacity="1" stroke-width="1" stroke-linecap="square" stroke-linejoin="round" transform="matrix(2,0,0,2,125.156,204.004)"
font-family="sans" font-size="11" font-weight="100" font-style="normal" 
>
<path vector-effect="none" fill-rule="nonzero" d="M2.79688,1.98438 L3.70312,1.98438 L0.90625,11.0156 L0,11.0156 L2.79688,1.98438 M5.71875,2.28125 L5.71875,3.98438 L7.75,3.98438 L7.75,4.75 L5.71875,4.75 L5.71875,8.01562 C5.71875,8.50521 5.78646,8.82031 5.92188,8.96094 C6.05729,9.10156 6.32812,9.17188 6.73438,9.17188 L7.75,9.17188 L7.75,10 L6.73438,10 C5.97396,10 5.44792,9.85677 5.15625,9.57031 C4.86458,9.28385 4.71875,8.76562 4.71875,8.01562 L4.71875,4.75 L4,4.75 L4,3.98438 L4.71875,3.98438 L4.71875,2.28125 L5.71875,2.28125 M8.95312,7.625 L8.95312,3.98438 L9.9375,3.98438 L9.9375,7.59375 C9.9375,8.15625 10.0495,8.58073 10.2734,8.86719 C10.4974,9.15365 10.8281,9.29688 11.2656,9.29688 C11.8073,9.29688 12.2318,9.1276 12.5391,8.78906 C12.8464,8.45052 13,7.98438 13,7.39062 L13,3.98438 L13.9844,3.98438 L13.9844,10 L13,10 L13,9.07812 C12.7604,9.44271 12.4818,9.71354 12.1641,9.89062 C11.8464,10.0677 11.4792,10.1562 11.0625,10.1562 C10.375,10.1562 9.85156,9.9401 9.49219,9.50781 C9.13281,9.07552 8.95312,8.44792 8.95312,7.625 M19.5,4.90625 C19.3958,4.84375 19.2786,4.79688 19.1484,4.76562 C19.0182,4.73438 18.875,4.71875 18.7188,4.71875 C18.1562,4.71875 17.7266,4.90104 17.4297,5.26562 C17.1328,5.63021 16.9844,6.15104 16.9844,6.82812 L16.9844,10 L15.9844,10 L15.9844,3.98438 L16.9844,3.98438 L16.9844,4.92188 C17.1823,4.55729 17.4479,4.28646 17.7812,4.10938 C18.1146,3.93229 18.5208,3.84375 19,3.84375 C19.0729,3.84375 19.1484,3.84635 19.2266,3.85156 C19.3047,3.85677 19.3958,3.86979 19.5,3.89062 L19.5,4.90625 M21.5156,2.28125 L21.5156,3.98438 L23.5469,3.98438 L23.5469,4.75 L21.5156,4.75 L21.5156,8.01562 C21.5156,8.50521 21.5833,8.82031 21.7188,8.96094 C21.8542,9.10156 22.125,9.17188 22.5312,9.17188 L23.5469,9.17188 L23.5469,10 L22.5312,10 C21.7708,10 21.2448,9.85677 20.9531,9.57031 C20.6615,9.28385 20.5156,8.76562 20.5156,8.01562 L20.5156,4.75 L19.7969,4.75 L19.7969,3.98438 L20.5156,3.98438 L20.5156,2.28125 L21.5156,2.28125 M24.8438,1.64062 L25.8438,1.64062 L25.8438,10 L24.8438,10 L24.8438,1.64062 M33.0469,6.75 L33.0469,7.23438 L28.5,7.23438 C28.5417,7.91146 28.7448,8.42708 29.1094,8.78125 C29.474,9.13542 29.9844,9.3125 30.6406,9.3125 C31.026,9.3125 31.3958,9.26562 31.75,9.17188 C32.1042,9.07812 32.4583,8.94271 32.8125,8.76562 L32.8125,9.6875 C32.4583,9.84375 32.0938,9.96094 31.7188,10.0391 C31.3438,10.1172 30.9688,10.1562 30.5938,10.1562 C29.625,10.1562 28.862,9.8776 28.3047,9.32031 C27.7474,8.76302 27.4688,8.00521 27.4688,7.04688 C27.4688,6.06771 27.7344,5.28906 28.2656,4.71094 C28.7969,4.13281 29.5156,3.84375 30.4219,3.84375 C31.224,3.84375 31.862,4.10417 32.3359,4.625 C32.8099,5.14583 33.0469,5.85417 33.0469,6.75 M32.0469,6.45312 C32.0469,5.91146 31.8984,5.47917 31.6016,5.15625 C31.3047,4.83333 30.9115,4.67188 30.4219,4.67188 C29.8698,4.67188 29.4297,4.82812 29.1016,5.14062 C28.7734,5.45312 28.5833,5.89062 28.5312,6.45312 L32.0469,6.45312 M34.9844,9.09375 L36.7656,9.09375 L36.7656,2.96875 L34.8281,3.35938 L34.8281,2.375 L36.75,1.98438 L37.8438,1.98438 L37.8438,9.09375 L39.6094,9.09375 L39.6094,10 L34.9844,10 L34.9844,9.09375 M43.4062,1.98438 L44.3125,1.98438 L41.5156,11.0156 L40.6094,11.0156 L43.4062,1.98438 M49.6719,4.21875 L49.6719,5.14062 C49.401,4.98438 49.125,4.86719 48.8438,4.78906 C48.5625,4.71094 48.276,4.67188 47.9844,4.67188 C47.349,4.67188 46.8542,4.875 46.5,5.28125 C46.1458,5.6875 45.9688,6.26042 45.9688,7 C45.9688,7.72917 46.1458,8.29688 46.5,8.70312 C46.8542,9.10938 47.349,9.3125 47.9844,9.3125 C48.276,9.3125 48.5625,9.27604 48.8438,9.20312 C49.125,9.13021 49.401,9.01562 49.6719,8.85938 L49.6719,9.76562 C49.401,9.90104 49.1172,10 48.8203,10.0625 C48.5234,10.125 48.2083,10.1562 47.875,10.1562 C46.9688,10.1562 46.25,9.8724 45.7188,9.30469 C45.1875,8.73698 44.9219,7.96875 44.9219,7 C44.9219,6.02083 45.1901,5.25 45.7266,4.6875 C46.263,4.125 47,3.84375 47.9375,3.84375 C48.25,3.84375 48.5495,3.875 48.8359,3.9375 C49.1224,4 49.401,4.09375 49.6719,4.21875 M56.0781,5.14062 C56.3281,4.69271 56.625,4.36458 56.9688,4.15625 C57.3125,3.94792 57.7188,3.84375 58.1875,3.84375 C58.8125,3.84375 59.2943,4.0625 59.6328,4.5 C59.9714,4.9375 60.1406,5.5625 60.1406,6.375 L60.1406,10 L59.1406,10 L59.1406,6.40625 C59.1406,5.82292 59.0391,5.39323 58.8359,5.11719 C58.6328,4.84115 58.3229,4.70312 57.9062,4.70312 C57.3958,4.70312 56.9922,4.8724 56.6953,5.21094 C56.3984,5.54948 56.25,6.01042 56.25,6.59375 L56.25,10 L55.25,10 L55.25,6.40625 C55.25,5.82292 55.1484,5.39323 54.9453,5.11719 C54.7422,4.84115 54.4271,4.70312 54,4.70312 C53.5,4.70312 53.1016,4.8724 52.8047,5.21094 C52.5078,5.54948 52.3594,6.01042 52.3594,6.59375 L52.3594,10 L51.3594,10 L51.3594,3.98438 L52.3594,3.98438 L52.3594,4.92188 C52.5781,4.54688 52.8464,4.27344 53.1641,4.10156 C53.4818,3.92969 53.8542,3.84375 54.2812,3.84375 C54.7188,3.84375 55.0911,3.95312 55.3984,4.17188 C55.7057,4.39062 55.9323,4.71354 56.0781,5.14062 M66.0625,4.89062 L66.0625,1.64062 L67.0469,1.64062 L67.0469,10 L66.0625,10 L66.0625,9.09375 C65.8542,9.45833 65.5911,9.72656 65.2734,9.89844 C64.9557,10.0703 64.5729,10.1562 64.125,10.1562 C63.4062,10.1562 62.8177,9.86719 62.3594,9.28906 C61.901,8.71094 61.6719,7.94792 61.6719,7 C61.6719,6.05208 61.901,5.28906 62.3594,4.71094 C62.8177,4.13281 63.4062,3.84375 64.125,3.84375 C64.5729,3.84375 64.9557,3.92969 65.2734,4.10156 C65.5911,4.27344 65.8542,4.53646 66.0625,4.89062 M62.6875,7 C62.6875,7.72917 62.8385,8.29948 63.1406,8.71094 C63.4427,9.1224 63.8542,9.32812 64.375,9.32812 C64.8958,9.32812 65.3073,9.1224 65.6094,8.71094 C65.9115,8.29948 66.0625,7.72917 66.0625,7 C66.0625,6.27083 65.9115,5.70052 65.6094,5.28906 C65.3073,4.8776 64.8958,4.67188 64.375,4.67188 C63.8542,4.67188 63.4427,4.8776 63.1406,5.28906 C62.8385,5.70052 62.6875,6.27083 62.6875,7 M73.6406,11.8281 L73.6406,12.5938 L67.9219,12.5938 L67.9219,11.8281 L73.6406,11.8281 M73.8594,3.98438 L74.9062,3.98438 L76.7812,9.03125 L78.6719,3.98438 L79.7188,3.98438 L77.4531,10 L76.1094,10 L73.8594,3.98438 M86.2188,6.75 L86.2188,7.23438 L81.6719,7.23438 C81.7135,7.91146 81.9167,8.42708 82.2812,8.78125 C82.6458,9.13542 83.1562,9.3125 83.8125,9.3125 C84.1979,9.3125 84.5677,9.26562 84.9219,9.17188 C85.276,9.07812 85.6302,8.94271 85.9844,8.76562 L85.9844,9.6875 C85.6302,9.84375 85.2656,9.96094 84.8906,10.0391 C84.5156,10.1172 84.1406,10.1562 83.7656,10.1562 C82.7969,10.1562 82.0339,9.8776 81.4766,9.32031 C80.9193,8.76302 80.6406,8.00521 80.6406,7.04688 C80.6406,6.06771 80.9062,5.28906 81.4375,4.71094 C81.9688,4.13281 82.6875,3.84375 83.5938,3.84375 C84.3958,3.84375 85.0339,4.10417 85.5078,4.625 C85.9818,5.14583 86.2188,5.85417 86.2188,6.75 M85.2188,6.45312 C85.2188,5.91146 85.0703,5.47917 84.7734,5.15625 C84.4766,4.83333 84.0833,4.67188 83.5938,4.67188 C83.0417,4.67188 82.6016,4.82812 82.2734,5.14062 C81.9453,5.45312 81.7552,5.89062 81.7031,6.45312 L85.2188,6.45312 M87.8281,1.64062 L88.8281,1.64062 L88.8281,10 L87.8281,10 L87.8281,1.64062"/>
</g>

<g fill="none" stroke="#000000" stroke-opacity="1" stroke-width="1" stroke-linecap="square" stroke-linejoin="bevel" transform="matrix(2,0,0,2,125.156,204.004)"
font-family="sans" font-size="11" font-weight="100" font-style="normal" 
>
</g>

<g fill="none" stroke="#000000" stroke-opacity="1" stroke-width="1" stroke-linecap="square" stroke-linejoin="bevel" transform="matrix(2,0,0,2,125.156,204.004)"
font-family="Ubuntu" font-size="11" font-weight="400" font-style="normal" 
>
</g>

<g fill="none" stroke="#000000" stroke-opacity="1" stroke-width="1" stroke-linecap="square" stroke-linejoin="bevel" transform="matrix(2,0,0,2,0,247.28)"
font-family="Ubuntu" font-size="11" font-weight="400" font-style="normal" 
>
</g>

<g fill="#000000" fill-opacity="1" stroke="#000000" stroke-opacity="1" stroke-width="1" stroke-linecap="square" stroke-linejoin="round" transform="matrix(2,0,0,2,0,247.28)"
font-family="Ubuntu" font-size="11" font-weight="400" font-style="normal" 
>
<path vector-effect="none" fill-rule="evenodd" d="M155.73,-8.2438 L156.8,-4.8453 L165.44,-11.3 L154.66,-11.6423 L155.73,-8.2438"/>
</g>

<g fill="none" stroke="#000000" stroke-opacity="1" stroke-width="1" stroke-linecap="square" stroke-linejoin="bevel" transform="matrix(2,0,0,2,0,247.28)"
font-family="Ubuntu" font-size="11" font-weight="400" font-style="normal" 
>
</g>

<g fill="none" stroke="#000000" stroke-opacity="1" stroke-width="1" stroke-linecap="square" stroke-linejoin="bevel" transform="matrix(1,0,0,1,0,0)"
font-family="Ubuntu" font-size="11" font-weight="400" font-style="normal" 
>
</g>
</g>
</svg>
